# xmcd
#
# Track frame offsets:
#	150
#	78887
#	104045
#	124060
#	142060
#	156150
#	182132
#	206910
#	224032
#	232077
#
# Disc length: 3679 seconds
#
# Revision: 1
# Processed by: cddbd v1.5.1PL0 Copyright (c) Steve Scherf et al.
# Submitted via: CDex 1.50Beta5
#
DISCID=9e0e5d0a
DTITLE=さだまさし - 響の森 Twenty Five Reasons さだまさし25周年記念ライブ Disc 3
DYEAR=1999
DGENRE=
TTITLE0=Talk9
TTITLE1=天然色の化石
TTITLE2=まほろば
TTITLE3=修二会
TTITLE4=Talk10
TTITLE5=桜月夜
TTITLE6=夢の夢
TTITLE7=秋桜
TTITLE8=Talk11
TTITLE9=風に立つライオン
EXTD=
EXTT0=
EXTT1=
EXTT2=
EXTT3=
EXTT4=
EXTT5=
EXTT6=
EXTT7=
EXTT8=
EXTT9=
PLAYORDER=
